<svg width="98" height="90" viewBox="0 0 98 90" fill="none" xmlns="http://www.w3.org/2000/svg">
<path d="M96.9996 41.0859C102.14 63.201 81.0761 82.6863 56.2224 88.4629C31.3686 94.2395 6.64264 75.0607 1.50255 52.9456C-3.63754 30.8305 26.5464 13.1016 51.4001 7.32494C76.2539 1.54832 91.8595 18.9709 96.9996 41.0859Z" fill="#F4FAF2"/>
<path d="M51 35C51 37.6522 49.9464 40.1957 48.0711 42.0711C46.1957 43.9464 43.6522 45 41 45C38.3478 45 35.8043 43.9464 33.9289 42.0711C32.0536 40.1957 31 37.6522 31 35C31 32.3478 32.0536 29.8043 33.9289 27.9289C35.8043 26.0536 38.3478 25 41 25C43.6522 25 46.1957 26.0536 48.0711 27.9289C49.9464 29.8043 51 32.3478 51 35Z" stroke="#82B181" stroke-width="4" stroke-linecap="round" stroke-linejoin="round"/>
<path d="M66 35C66 58.8067 41 72.5 41 72.5C41 72.5 16 58.8067 16 35C16 28.3696 18.6339 22.0107 23.3223 17.3223C28.0107 12.6339 34.3696 10 41 10C47.6304 10 53.9893 12.6339 58.6777 17.3223C63.3661 22.0107 66 28.3696 66 35Z" stroke="#82B181" stroke-width="4" stroke-linecap="round" stroke-linejoin="round"/>
</svg>
