<svg width="98" height="90" viewBox="0 0 98 90" fill="none" xmlns="http://www.w3.org/2000/svg">
<path d="M96.9996 41.0859C102.14 63.201 81.0761 82.6863 56.2224 88.4629C31.3686 94.2395 6.64264 75.0607 1.50255 52.9456C-3.63754 30.8305 26.5464 13.1016 51.4001 7.32494C76.2539 1.54832 91.8595 18.9709 96.9996 41.0859Z" fill="#F4FAF2"/>
<path d="M50.5233 56.94C56.734 56.2047 62.8362 54.739 68.7033 52.5733C63.7346 47.0694 60.989 39.915 61 32.5V30C61 24.6957 58.8929 19.6086 55.1421 15.8579C51.3914 12.1071 46.3043 10 41 10C35.6957 10 30.6086 12.1071 26.8579 15.8579C23.1071 19.6086 21 24.6957 21 30V32.5C21.0101 39.9154 18.2633 47.0699 13.2933 52.5733C19.07 54.7067 25.16 56.19 31.4767 56.94M50.5233 56.94C44.1966 57.6904 37.8034 57.6904 31.4767 56.94M50.5233 56.94C51.0037 58.4395 51.1231 60.0313 50.872 61.5857C50.6208 63.1402 50.0061 64.6133 49.0779 65.8853C48.1498 67.1572 46.9343 68.192 45.5306 68.9054C44.1269 69.6188 42.5746 69.9906 41 69.9906C39.4254 69.9906 37.8731 69.6188 36.4694 68.9054C35.0656 68.192 33.8502 67.1572 32.9221 65.8853C31.9939 64.6133 31.3792 63.1402 31.128 61.5857C30.8769 60.0313 30.9963 58.4395 31.4767 56.94M11.4133 25C12.3532 19.4166 14.8593 14.2148 18.64 10M63.36 10C67.1407 14.2148 69.6468 19.4166 70.5867 25" stroke="#82B181" stroke-width="4" stroke-linecap="round" stroke-linejoin="round"/>
</svg>
