<svg width="1429" height="340" viewBox="0 0 1429 340" fill="none" xmlns="http://www.w3.org/2000/svg">
<path d="M102.223 87.0212L159.345 65.6168L257.688 188.417L386.913 139.994" stroke="#176C15" stroke-width="25" stroke-linecap="round" stroke-linejoin="round"/>
<path d="M13 251.398L142.225 202.975" stroke="#51A74F" stroke-width="25" stroke-linecap="round" stroke-linejoin="round"/>
<path d="M100.467 327.423L254.976 269.526L180.314 176.296" stroke="#51A74F" stroke-width="25" stroke-linecap="round" stroke-linejoin="round"/>
<circle cx="287.973" cy="65.473" r="40.822" transform="rotate(-20.5419 287.973 65.473)" stroke="#51A74F" stroke-width="24"/>
<circle cx="300.222" cy="230.68" r="27" transform="rotate(-20.5419 300.222 230.68)" fill="#176C15"/>
<circle cx="388.245" cy="197.696" r="27" transform="rotate(-20.5419 388.245 197.696)" fill="#176C15"/>
<path d="M627.407 256.785C633.932 256.785 637.196 260.052 637.196 266.721C637.196 273.255 633.932 276.522 627.407 276.522H497.565C490.903 276.522 487.64 273.255 487.64 266.721V91.8072C487.64 85.2735 490.903 82.0066 497.565 82.0066H627.407C633.932 82.0066 637.196 85.2735 637.196 91.8072C637.196 98.4771 633.932 101.744 627.407 101.744H507.354V169.396H605.381C611.907 169.396 615.17 172.662 615.17 179.332C615.17 185.73 611.907 188.997 605.381 188.997H507.354V256.785H627.407ZM705.322 137.135L705.458 137.407C721.093 137.407 734.417 143.124 745.701 154.286C756.85 165.448 762.696 178.788 762.696 194.85C762.696 197.436 761.608 199.75 759.569 201.792C757.53 203.834 755.219 204.787 752.5 204.787C749.916 204.787 747.605 203.97 745.566 202.337C743.527 199.75 742.575 197.3 742.575 194.85C742.575 184.505 738.904 175.657 731.562 168.307C727.891 164.767 723.948 162.045 719.598 160.276C715.247 158.506 710.489 157.553 705.322 157.553C694.988 157.553 686.287 161.092 679.081 168.307C671.74 175.657 668.068 184.505 668.068 194.85V267.674C668.068 270.805 666.982 273.118 665.213 274.889C663.039 276.658 660.863 277.747 658.143 277.747C655.017 277.747 652.569 276.658 650.802 274.753C649.987 273.8 649.306 272.711 648.763 271.485C648.218 270.26 647.947 268.9 647.947 267.538V193.761C647.947 177.835 654.066 164.631 665.077 153.742C676.362 142.852 689.687 137.135 705.322 137.135ZM1233.98 257.465V257.601C1247.71 257.601 1259.4 252.701 1269.05 243.037C1278.71 233.372 1283.47 221.665 1283.47 207.918C1283.47 194.033 1278.57 182.463 1269.05 172.662C1259.54 162.998 1247.98 158.098 1233.98 158.098C1220.24 158.098 1208.55 162.998 1198.9 172.662C1189.25 182.327 1184.35 194.033 1184.35 207.781C1184.35 221.529 1189.25 233.235 1198.9 242.901C1208.82 252.701 1220.52 257.465 1233.98 257.465ZM1303.99 207.918V208.19C1303.99 227.382 1297.06 243.853 1283.33 257.601C1269.73 271.349 1253.28 278.019 1233.98 278.019C1214.81 278.019 1198.49 271.349 1184.76 257.601C1171.03 243.853 1164.09 227.518 1164.09 208.19C1164.09 188.861 1171.03 172.526 1184.76 158.778C1198.49 145.03 1214.81 138.088 1233.98 138.088C1247.3 138.088 1259.4 141.491 1270.41 148.161C1273 149.658 1275.31 151.292 1277.48 153.061C1279.66 154.831 1281.7 156.6 1283.6 158.506V93.1684C1283.6 90.5821 1284.69 88.132 1286.73 85.8179C1288.77 83.9123 1291.08 82.9594 1293.8 82.9594C1296.65 82.9594 1299.1 83.9123 1301.14 85.8179C1303.04 87.7236 1303.99 90.1738 1303.99 93.0323V207.918ZM1425.42 218.127V219.08C1427.73 223.299 1428.82 228.608 1428.82 235.142V237.864C1428.82 238.817 1428.82 239.77 1428.68 240.586C1428.41 243.308 1427.73 246.032 1426.51 248.89C1425.28 251.748 1423.65 254.47 1421.61 257.057C1416.44 263.727 1409.78 268.763 1401.76 272.166C1393.74 275.569 1384.22 277.202 1373.21 277.202C1361.92 277.202 1351.59 274.753 1342.21 269.444C1337.59 266.858 1333.37 263.727 1329.57 260.052C1325.76 256.376 1322.63 252.292 1320.19 247.801H1320.32C1319.23 246.167 1318.69 244.397 1318.69 242.628C1318.69 242.084 1318.69 241.539 1318.69 241.131C1318.69 240.722 1318.83 240.179 1319.1 239.497C1319.5 238.272 1320.05 237.184 1320.73 236.23C1321.41 235.277 1322.5 234.461 1323.86 233.78L1323.72 233.917C1325.35 232.828 1326.98 232.282 1328.61 232.282C1329.84 232.282 1330.93 232.555 1331.88 232.964V232.828C1333.1 233.235 1334.19 233.917 1335.14 234.733C1336.09 235.55 1336.91 236.502 1337.59 237.592C1339.35 240.45 1341.39 243.037 1343.71 245.486C1346.02 247.937 1348.74 249.979 1351.86 251.748C1355.13 253.518 1358.53 254.879 1361.92 255.832C1365.32 256.785 1368.99 257.192 1372.8 257.192C1380.14 257.192 1386.53 256.105 1391.97 253.926C1397.41 251.748 1401.76 248.754 1404.89 244.942C1406.66 242.628 1407.61 240.722 1407.88 239.225V238.408C1408.01 237.728 1408.15 237.048 1408.15 236.366C1408.15 235.686 1408.15 235.142 1408.15 234.733C1408.15 233.508 1408.15 232.419 1408.01 231.466C1407.88 230.513 1407.61 229.697 1407.2 229.016C1405.97 226.975 1403.8 224.524 1400.4 222.211C1397.95 220.44 1394.28 219.351 1389.8 218.398C1385.31 217.445 1380.01 217.038 1373.75 217.038C1365.19 217.038 1357.71 216.221 1351.32 214.587C1344.93 212.954 1339.76 210.64 1335.68 207.645C1332.56 205.331 1329.84 202.881 1327.53 200.431C1325.22 197.981 1323.45 195.531 1322.22 193.08C1320.46 189.405 1319.37 184.505 1319.64 178.38L1319.78 174.84C1319.91 172.254 1320.59 169.532 1321.82 166.673C1323.04 163.815 1324.67 161.092 1326.71 158.37C1331.88 151.7 1338.54 146.664 1346.56 143.26C1354.58 139.858 1364.1 138.088 1374.98 138.088C1382.32 138.088 1389.39 139.313 1396.19 141.763C1402.98 144.213 1409.1 147.616 1414.68 151.972C1415.9 152.925 1416.85 153.878 1417.53 154.831C1418.21 155.784 1418.62 157.281 1418.76 159.323C1418.76 160.684 1418.62 161.909 1418.35 162.998C1418.08 164.087 1417.53 165.04 1416.72 165.993C1415.76 167.218 1414.81 168.034 1413.73 168.579C1412.64 169.123 1411.14 169.668 1409.24 169.668C1406.79 169.804 1404.62 168.987 1402.85 167.762C1402.71 167.762 1402.58 167.626 1402.44 167.49C1394.69 160.956 1385.72 157.689 1375.52 157.689C1368.04 157.689 1361.65 158.778 1356.35 160.956C1351.05 163.134 1346.83 166.129 1343.57 169.94V169.804C1341.8 172.118 1340.85 174.024 1340.71 175.521V177.154C1340.71 180.693 1340.85 183.008 1341.26 184.096V183.824C1342.35 185.866 1344.66 188.18 1348.19 190.63C1350.78 192.264 1354.31 193.625 1358.8 194.578C1363.28 195.531 1368.59 196.075 1374.57 196.075C1383 196.075 1390.48 196.892 1396.87 198.389C1403.26 199.886 1408.56 202.064 1412.77 204.923C1415.63 206.965 1418.08 209.143 1420.25 211.32C1422.43 213.498 1424.19 215.812 1425.55 218.127H1425.42Z" fill="#51A74F"/>
<path d="M836.67 137.135L836.806 137.407C852.441 137.407 865.764 143.125 877.049 154.286C888.198 165.448 894.044 178.788 894.044 194.85C894.044 197.436 892.957 199.75 890.917 201.792C888.878 203.834 886.567 204.787 883.847 204.787C881.264 204.787 878.953 203.97 876.913 202.337C874.874 199.75 873.922 197.3 873.922 194.85C873.922 184.505 870.252 175.657 862.909 168.307C859.239 164.768 855.296 162.045 850.945 160.276C846.595 158.506 841.837 157.553 836.67 157.553C826.336 157.553 817.635 161.092 810.429 168.307C803.087 175.657 799.416 184.505 799.416 194.85V267.674C799.416 270.805 798.329 273.119 796.561 274.889C794.386 276.658 792.21 277.747 789.491 277.747C786.364 277.747 783.918 276.658 782.15 274.753C781.334 273.8 780.654 272.711 780.111 271.486C779.566 270.26 779.294 268.9 779.294 267.538V193.761C779.294 177.835 785.413 164.631 796.425 153.742C807.71 142.852 821.034 137.135 836.67 137.135ZM1015.74 137.544L1015.87 137.271C1019 137.271 1021.31 138.36 1023.08 140.402C1024.85 142.58 1025.94 144.758 1025.94 147.344V219.487C1025.94 235.413 1020.09 248.617 1008.94 259.507C997.521 270.533 984.06 276.249 968.289 276.249C952.518 276.249 939.058 270.805 927.773 259.916C922.2 254.47 917.984 248.481 915.13 241.948C912.273 235.413 910.642 228.2 910.642 220.44V147.344C910.642 144.622 911.594 142.308 913.633 140.402C915.673 138.36 918.121 137.271 920.839 137.271C923.967 137.271 926.413 138.36 928.317 140.538C928.453 140.947 928.589 141.219 928.589 141.355C929.268 142.308 929.813 143.261 930.085 144.35C930.356 145.439 930.492 146.528 930.492 147.617V219.76C930.492 229.697 934.163 238.272 941.641 245.486C949.118 252.701 957.957 256.376 968.153 256.376C973.32 256.376 978.078 255.423 982.429 253.654C986.78 251.885 990.858 249.161 994.801 245.486C1002.01 238.408 1005.68 229.833 1005.68 219.76V147.617C1005.68 145.03 1006.63 142.716 1008.67 140.674C1010.98 138.496 1013.29 137.544 1015.74 137.544ZM1095.83 137.816H1095.56C1111.06 137.816 1124.38 143.397 1135.53 154.559C1146.54 165.584 1152.12 178.924 1152.12 194.442V266.585C1152.12 268.082 1151.98 269.444 1151.57 270.533C1151.17 271.622 1150.49 272.575 1149.4 273.527C1147.63 275.569 1145.18 276.522 1142.06 276.522C1138.93 276.522 1136.48 275.433 1134.71 273.391C1132.95 271.349 1131.99 269.036 1131.99 266.585V194.442C1131.99 184.233 1128.46 175.521 1121.25 168.443C1114.05 161.365 1105.48 157.825 1095.56 157.825C1085.63 157.825 1077.07 161.365 1069.86 168.443C1062.79 175.521 1059.26 184.233 1059.26 194.442V266.585C1059.26 269.58 1058.3 271.894 1056.4 273.527C1054.5 275.569 1052.05 276.522 1049.06 276.522C1047.7 276.522 1046.48 276.386 1045.39 275.978C1044.3 275.569 1043.21 274.753 1042.26 273.527C1040.36 272.031 1039.41 269.716 1039.41 266.585V193.625C1039.41 178.38 1045.12 165.312 1056.27 154.286C1067.28 143.261 1080.47 137.816 1095.83 137.816Z" fill="#176C15"/>
</svg>
