<svg width="642" height="495" viewBox="0 0 642 495" fill="none" xmlns="http://www.w3.org/2000/svg">
<path d="M81.778 277.411C89.7901 271.222 97.9692 265.226 102.784 256.276C127.18 210.99 76.398 158.012 104.582 108.937C118.886 84.0406 147.095 65.8207 174.624 76.1697C203.963 87.2121 231.659 98.7424 263.22 89.6132C318.432 73.6145 347.104 -1.24264 407.246 0.0156787C456.616 1.04288 511.558 53.0449 483.002 107.011C461.367 147.843 474.887 181.637 524.925 188.674C574.962 195.71 596.482 254.813 581.652 280.197C566.822 305.582 538.394 332.289 565.435 343.55C592.476 354.811 601.939 391.417 599.23 416.738C596.521 442.058 591.128 451.932 591.128 451.932H72.1095C72.1095 451.932 50.2173 423.774 47.5209 359.022C46.3396 330.954 52.1561 303.463 73.3678 284.268C76.0514 281.879 78.9018 279.632 81.778 277.411Z" fill="#82B181"/>
<path opacity="0.7" d="M81.778 277.411C89.7901 271.222 97.9692 265.226 102.784 256.276C127.18 210.99 76.398 158.012 104.582 108.937C118.886 84.0406 147.095 65.8207 174.624 76.1697C203.963 87.2121 231.659 98.7424 263.22 89.6132C318.432 73.6145 347.104 -1.24264 407.246 0.0156787C456.616 1.04288 511.558 53.0449 483.002 107.011C461.367 147.843 474.887 181.637 524.925 188.674C574.962 195.71 596.482 254.813 581.652 280.197C566.822 305.582 538.394 332.289 565.435 343.55C592.476 354.811 601.939 391.417 599.23 416.738C596.521 442.058 591.128 451.932 591.128 451.932H72.1095C72.1095 451.932 50.2173 423.774 47.5209 359.022C46.3396 330.954 52.1561 303.463 73.3678 284.268C76.0514 281.879 78.9018 279.632 81.778 277.411Z" fill="white"/>
<path d="M326.701 493.637C272.452 493.637 228.475 489.038 228.475 483.365C228.475 477.692 272.452 473.093 326.701 473.093C380.95 473.093 424.927 477.692 424.927 483.365C424.927 489.038 380.95 493.637 326.701 493.637Z" fill="#82B181"/>
<path opacity="0.5" d="M326.701 493.637C272.452 493.637 228.475 489.038 228.475 483.365C228.475 477.692 272.452 473.093 326.701 473.093C380.95 473.093 424.927 477.692 424.927 483.365C424.927 489.038 380.95 493.637 326.701 493.637Z" fill="white"/>
<path d="M104.736 398.492V382.815H122.224V352.397H147.352V228.85H171.388V303.528H193.242V276.795H222.735V345.938H234.754V368.061H263.156V359.767H254.425V355.157H290.479V360.691H286.101V384.664H304.68V339.48H370.229V371.747H417.223V347.774H434.698V374.52H471.844V325.651H487.137V309.062H514.46V384.664H541.771V401.253H559.246V451.958H70.864V398.492H104.736Z" stroke="#2E353A" stroke-miterlimit="10"/>
<path d="M503.713 325.433H509.62V331.339H503.713V325.433Z" fill="#2E353A"/>
<path d="M491.412 325.433H497.319V331.339H491.412V325.433Z" fill="#2E353A"/>
<path d="M503.713 337.746H509.62V343.653H503.713V337.746Z" fill="#2E353A"/>
<path d="M491.412 337.746H497.319V343.653H491.412V337.746Z" fill="#2E353A"/>
<path d="M478.123 337.746H484.03V343.653H478.123V337.746Z" fill="#2E353A"/>
<path d="M478.123 350.047H484.03V355.953H478.123V350.047Z" fill="#2E353A"/>
<path d="M478.123 362.36H484.03V368.267H478.123V362.36Z" fill="#2E353A"/>
<path d="M478.123 374.661H484.03V380.568H478.123V374.661Z" fill="#2E353A"/>
<path d="M478.123 386.975H484.03V392.881H478.123V386.975Z" fill="#2E353A"/>
<path d="M478.123 399.288H484.03V405.195H478.123V399.288Z" fill="#2E353A"/>
<path d="M503.713 350.047H509.62V355.953H503.713V350.047Z" fill="#2E353A"/>
<path d="M491.412 350.047H497.319V355.953H491.412V350.047Z" fill="#2E353A"/>
<path d="M503.713 362.36H509.62V368.267H503.713V362.36Z" fill="#2E353A"/>
<path d="M491.412 362.36H497.319V368.267H491.412V362.36Z" fill="#2E353A"/>
<path d="M503.713 374.661H509.62V380.568H503.713V374.661Z" fill="#2E353A"/>
<path d="M491.412 374.661H497.319V380.568H491.412V374.661Z" fill="#2E353A"/>
<path d="M503.713 386.975H509.62V392.881H503.713V386.975Z" fill="#2E353A"/>
<path d="M530.793 393.87H536.699V399.776H530.793V393.87Z" fill="#2E353A"/>
<path d="M445.625 380.568H451.531V386.474H445.625V380.568Z" fill="#2E353A"/>
<path d="M433.812 380.568H439.719V386.474H433.812V380.568Z" fill="#2E353A"/>
<path d="M161.553 235.822H167.459V241.729H161.553V235.822Z" fill="#2E353A"/>
<path d="M154.17 235.822H160.076V241.729H154.17V235.822Z" fill="#2E353A"/>
<path d="M161.553 248.136H167.459V254.042H161.553V248.136Z" fill="#2E353A"/>
<path d="M154.17 248.136H160.076V254.042H154.17V248.136Z" fill="#2E353A"/>
<path d="M161.553 260.449H167.459V266.356H161.553V260.449Z" fill="#2E353A"/>
<path d="M154.17 260.449H160.076V266.356H154.17V260.449Z" fill="#2E353A"/>
<path d="M161.553 272.75H167.459V278.657H161.553V272.75Z" fill="#2E353A"/>
<path d="M154.17 272.75H160.076V278.657H154.17V272.75Z" fill="#2E353A"/>
<path d="M161.553 285.064H167.459V290.97H161.553V285.064Z" fill="#2E353A"/>
<path d="M154.17 285.064H160.076V290.97H154.17V285.064Z" fill="#2E353A"/>
<path d="M161.553 297.364H167.459V303.271H161.553V297.364Z" fill="#2E353A"/>
<path d="M154.17 297.364H160.076V303.271H154.17V297.364Z" fill="#2E353A"/>
<path d="M161.553 309.678H167.459V315.584H161.553V309.678Z" fill="#2E353A"/>
<path d="M154.17 309.678H160.076V315.584H154.17V309.678Z" fill="#2E353A"/>
<path d="M161.553 321.992H167.459V327.898H161.553V321.992Z" fill="#2E353A"/>
<path d="M154.17 321.992H160.076V327.898H154.17V321.992Z" fill="#2E353A"/>
<path d="M161.553 334.292H167.459V340.199H161.553V334.292Z" fill="#2E353A"/>
<path d="M154.17 334.292H160.076V340.199H154.17V334.292Z" fill="#2E353A"/>
<path d="M211.77 334.292H217.677V340.199H211.77V334.292Z" fill="#2E353A"/>
<path d="M198.969 334.292H204.875V340.199H198.969V334.292Z" fill="#2E353A"/>
<path d="M186.167 334.292H192.073V340.199H186.167V334.292Z" fill="#2E353A"/>
<path d="M211.77 360.884H217.677V366.79H211.77V360.884Z" fill="#2E353A"/>
<path d="M198.969 360.884H204.875V366.79H198.969V360.884Z" fill="#2E353A"/>
<path d="M186.167 360.884H192.073V366.79H186.167V360.884Z" fill="#2E353A"/>
<path d="M211.77 387.463H217.677V393.369H211.77V387.463Z" fill="#2E353A"/>
<path d="M198.969 387.463H204.875V393.369H198.969V387.463Z" fill="#2E353A"/>
<path d="M186.167 387.463H192.073V393.369H186.167V387.463Z" fill="#2E353A"/>
<path d="M161.553 346.606H167.459V352.512H161.553V346.606Z" fill="#2E353A"/>
<path d="M154.17 346.606H160.076V352.512H154.17V346.606Z" fill="#2E353A"/>
<path d="M161.553 358.906H167.459V364.813H161.553V358.906Z" fill="#2E353A"/>
<path d="M154.17 358.906H160.076V364.813H154.17V358.906Z" fill="#2E353A"/>
<path d="M161.553 371.22H167.459V377.127H161.553V371.22Z" fill="#2E353A"/>
<path d="M154.17 371.22H160.076V377.127H154.17V371.22Z" fill="#2E353A"/>
<path d="M141.856 358.906H147.763V364.813H141.856V358.906Z" fill="#2E353A"/>
<path d="M128.066 358.906H133.973V364.813H128.066V358.906Z" fill="#2E353A"/>
<path d="M141.856 370.732H147.763V376.639H141.856V370.732Z" fill="#2E353A"/>
<path d="M128.066 370.732H133.973V376.639H128.066V370.732Z" fill="#2E353A"/>
<path d="M141.856 382.545H147.763V388.451H141.856V382.545Z" fill="#2E353A"/>
<path d="M128.066 382.545H133.973V388.451H128.066V382.545Z" fill="#2E353A"/>
<path d="M141.856 394.358H147.763V400.264H141.856V394.358Z" fill="#2E353A"/>
<path d="M128.066 394.358H133.973V400.264H128.066V394.358Z" fill="#2E353A"/>
<path d="M161.553 383.534H167.459V389.44H161.553V383.534Z" fill="#2E353A"/>
<path d="M154.17 383.534H160.076V389.44H154.17V383.534Z" fill="#2E353A"/>
<path d="M161.553 395.834H167.459V401.741H161.553V395.834Z" fill="#2E353A"/>
<path d="M154.17 395.834H160.076V401.741H154.17V395.834Z" fill="#2E353A"/>
<path d="M491.412 386.975H497.319V392.881H491.412V386.975Z" fill="#2E353A"/>
<path d="M503.713 399.288H509.62V405.195H503.713V399.288Z" fill="#2E353A"/>
<path d="M491.412 399.288H497.319V405.195H491.412V399.288Z" fill="#2E353A"/>
<path d="M503.713 411.589H509.62V417.495H503.713V411.589Z" fill="#2E353A"/>
<path d="M491.412 411.589H497.319V417.495H491.412V411.589Z" fill="#2E353A"/>
<path d="M503.713 423.903H509.62V429.809H503.713V423.903Z" fill="#2E353A"/>
<path d="M491.412 423.903H497.319V429.809H491.412V423.903Z" fill="#2E353A"/>
<path d="M180.261 427.601V451.958H229.489V403.526H180.261V423.261" stroke="#2E353A" stroke-miterlimit="10"/>
<path d="M89.6617 444.601V451.958H138.903V426.355H128.734" stroke="#2E353A" stroke-miterlimit="10"/>
<path d="M122.738 426.355H89.6617V440.607" stroke="#2E353A" stroke-miterlimit="10"/>
<path d="M452.533 426.355H417.557V451.958H466.798V426.355H457.207" stroke="#2E353A" stroke-miterlimit="10"/>
<path d="M529.56 426.355H524.886V451.958H543.106V426.355H533.232" stroke="#2E353A" stroke-miterlimit="10"/>
<path d="M200.946 403.526H208.817V451.958H200.946V403.526Z" stroke="#2E353A" stroke-miterlimit="10"/>
<path d="M262.129 410.112H269.858V397.311H243.767V410.112H255.118" stroke="#2E353A" stroke-miterlimit="10"/>
<path d="M400.326 388.451H430.358V399.288H400.326V388.451Z" stroke="#2E353A" stroke-miterlimit="10"/>
<path d="M413.127 388.451H416.08V451.958H413.127V388.451Z" stroke="#2E353A" stroke-miterlimit="10"/>
<path d="M321 2.67355C364.929 2.67355 407.06 20.1244 438.122 51.1872C469.185 82.25 486.636 124.38 486.636 168.31C486.636 250.935 333.84 445.654 333.84 445.654H321C321 445.654 155.364 259.782 155.364 168.31C155.364 124.38 172.815 82.25 203.878 51.1872C234.94 20.1244 277.071 2.67355 321 2.67355ZM321 249.202C336.999 249.202 352.639 244.457 365.941 235.569C379.244 226.68 389.612 214.047 395.734 199.266C401.857 184.485 403.459 168.22 400.338 152.528C397.216 136.837 389.512 122.423 378.199 111.11C366.886 99.7973 352.473 92.0931 336.781 88.9719C321.09 85.8506 304.825 87.4526 290.044 93.5751C275.263 99.6976 262.629 110.066 253.741 123.368C244.852 136.671 240.108 152.311 240.108 168.31C240.108 178.932 242.2 189.451 246.266 199.266C250.331 209.08 256.289 217.997 263.801 225.509C271.312 233.02 280.23 238.979 290.044 243.044C299.858 247.109 310.377 249.202 321 249.202Z" fill="#2E353A" stroke="#2E353A" stroke-linecap="round" stroke-linejoin="round"/>
<path d="M333.84 2.67355C377.769 2.67355 419.9 20.1244 450.962 51.1872C482.025 82.25 499.476 124.38 499.476 168.31C499.476 259.782 333.84 445.654 333.84 445.654C333.84 445.654 168.204 259.782 168.204 168.31C168.204 124.38 185.655 82.25 216.718 51.1872C247.78 20.1244 289.911 2.67355 333.84 2.67355ZM333.84 249.202C349.839 249.202 365.479 244.457 378.781 235.569C392.084 226.68 402.452 214.047 408.574 199.266C414.697 184.485 416.299 168.22 413.178 152.528C410.056 136.837 402.352 122.423 391.039 111.11C379.726 99.7973 365.313 92.0931 349.621 88.9719C333.93 85.8506 317.665 87.4526 302.884 93.5751C288.103 99.6976 275.469 110.066 266.581 123.368C257.692 136.671 252.948 152.311 252.948 168.31C252.948 189.763 261.47 210.339 276.641 225.509C291.811 240.679 312.386 249.202 333.84 249.202Z" fill="#82B181" stroke="#2E353A" stroke-linecap="round" stroke-linejoin="round"/>
<path d="M385.932 269.258L367.635 238.121L367.314 249.356L378.228 271.184L385.932 269.258Z" fill="white" stroke="#2E353A" stroke-linecap="round" stroke-linejoin="round"/>
<path d="M367.314 374.443C368.344 379.865 370.71 384.944 374.196 389.222C380.038 396.451 387.948 410.549 388.32 423.954C388.692 437.359 404.152 474.454 402.444 477.201C400.736 479.949 385.598 483.737 379.756 483.737C376.687 483.737 371.602 484.918 369.574 481.927C369.458 481.76 381.579 475.507 382.414 474.903C383.248 474.3 390.002 469.549 389.784 468.945C389.784 468.945 373.939 426.008 366.03 415.017C358.12 404.026 352.278 395.757 349.877 388.888C347.476 382.019 345.319 375.509 345.319 375.509L367.314 374.443Z" fill="white"/>
<mask id="mask0_7_6009" style="mask-type:luminance" maskUnits="userSpaceOnUse" x="345" y="374" width="58" height="110">
<path d="M367.314 374.443C368.344 379.865 370.71 384.944 374.196 389.222C380.038 396.451 387.948 410.549 388.32 423.954C388.692 437.359 404.152 474.454 402.444 477.201C400.736 479.949 385.598 483.737 379.756 483.737C376.687 483.737 371.602 484.918 369.574 481.927C369.458 481.76 381.579 475.507 382.414 474.903C383.248 474.3 390.002 469.549 389.784 468.945C389.784 468.945 373.939 426.008 366.03 415.017C358.12 404.026 352.278 395.757 349.877 388.888C347.476 382.019 345.319 375.509 345.319 375.509L367.314 374.443Z" fill="white"/>
</mask>
<g mask="url(#mask0_7_6009)">
<g style="mix-blend-mode:multiply">
<path d="M371.615 385.55C364.962 388.399 357.972 390.388 350.814 391.469C350.429 390.583 350.083 389.723 349.787 388.901C347.373 382.019 345.319 375.483 345.319 375.483L367.314 374.456C368.048 378.388 369.507 382.15 371.615 385.55Z" fill="#82B181"/>
</g>
</g>
<path d="M367.314 374.443C368.344 379.865 370.71 384.944 374.196 389.222C380.038 396.451 387.948 410.549 388.32 423.954C388.692 437.359 404.152 474.454 402.444 477.201C400.736 479.949 385.598 483.737 379.756 483.737C376.687 483.737 371.602 484.918 369.574 481.927C369.458 481.76 381.579 475.507 382.414 474.903C383.248 474.3 390.002 469.549 389.784 468.945C389.784 468.945 373.939 426.008 366.03 415.017C358.12 404.026 352.278 395.757 349.877 388.888C347.476 382.019 345.319 375.509 345.319 375.509L367.314 374.443Z" stroke="#2E353A" stroke-linecap="round" stroke-linejoin="round"/>
<path d="M317.559 377.255C314.206 381.643 311.999 386.797 311.139 392.252C309.688 401.433 304.501 416.738 294.755 425.97C285.01 435.202 267.791 474.03 264.607 474.582C260.87 475.25 255.169 470.473 252.396 468.534C248.865 466.069 240.763 461.036 239.556 456.683C238.105 451.676 243.254 454.192 245.424 455.81C248.236 457.903 262.27 459.662 262.27 459.662C262.27 459.662 283.597 416.597 286.473 403.371C289.349 390.146 291.609 380.259 295.089 373.839C298.569 367.419 302.061 361.552 302.061 361.552L317.559 377.255Z" fill="white"/>
<mask id="mask1_7_6009" style="mask-type:luminance" maskUnits="userSpaceOnUse" x="239" y="361" width="79" height="114">
<path d="M317.559 377.255C314.206 381.643 311.999 386.797 311.139 392.252C309.688 401.433 304.501 416.738 294.755 425.97C285.01 435.202 267.791 474.03 264.607 474.582C260.87 475.25 255.169 470.473 252.396 468.534C248.865 466.069 240.763 461.036 239.556 456.683C238.105 451.676 243.254 454.192 245.424 455.81C248.236 457.903 262.27 459.662 262.27 459.662C262.27 459.662 283.597 416.597 286.473 403.371C289.349 390.146 291.609 380.259 295.089 373.839C298.569 367.419 302.061 361.552 302.061 361.552L317.559 377.255Z" fill="white"/>
</mask>
<g mask="url(#mask1_7_6009)">
<g style="mix-blend-mode:multiply">
<path d="M295.089 373.878C298.594 367.458 302.074 361.59 302.074 361.59L317.559 377.255C314.93 380.693 313.014 384.622 311.922 388.811C304.934 387.566 298.063 385.74 291.378 383.354C292.289 380.077 293.533 376.902 295.089 373.878Z" fill="#82B181"/>
</g>
</g>
<path d="M317.559 377.255C314.206 381.643 311.999 386.797 311.139 392.252C309.688 401.433 304.501 416.738 294.755 425.97C285.01 435.202 267.791 474.03 264.607 474.582C260.87 475.25 255.169 470.473 252.396 468.534C248.865 466.069 240.763 461.036 239.556 456.683C238.105 451.676 243.254 454.192 245.424 455.81C248.236 457.903 262.27 459.662 262.27 459.662C262.27 459.662 283.597 416.597 286.473 403.371C289.349 390.146 291.609 380.259 295.089 373.839C298.569 367.419 302.061 361.552 302.061 361.552L317.559 377.255Z" stroke="#2E353A" stroke-linecap="round" stroke-linejoin="round"/>
<path d="M239.543 456.683C238.092 451.675 243.241 454.192 245.411 455.81C248.223 457.903 262.257 459.662 262.257 459.662C262.257 459.662 263.772 456.324 265.981 451.29C268.716 453.453 271.742 455.221 274.969 456.542C270.154 466.031 266.16 474.364 264.594 474.633C260.857 475.301 255.157 470.525 252.383 468.586C248.891 466.069 240.789 461.036 239.543 456.683Z" fill="white" stroke="#2E353A" stroke-linecap="round" stroke-linejoin="round"/>
<path d="M366.852 305.826L378.78 371.657C373.4 375.1 367.672 377.966 361.69 380.208C352.291 383.624 336.01 382.776 336.01 382.776L329.59 350.74L327.022 380.645C327.022 380.645 314.631 381.929 305.656 380.221C296.681 378.513 282.159 369.101 282.159 369.101L310.407 316.56L316.827 304.17L366.813 302.886L366.852 305.826Z" fill="white"/>
<mask id="mask2_7_6009" style="mask-type:luminance" maskUnits="userSpaceOnUse" x="282" y="302" width="97" height="81">
<path d="M366.852 305.826L378.78 371.657C373.4 375.1 367.672 377.966 361.69 380.208C352.291 383.624 336.01 382.776 336.01 382.776L329.59 350.74L327.022 380.645C327.022 380.645 314.631 381.929 305.656 380.221C296.681 378.513 282.159 369.101 282.159 369.101L310.407 316.56L316.827 304.17L366.813 302.886L366.852 305.826Z" fill="white"/>
</mask>
<g mask="url(#mask2_7_6009)">
<g style="mix-blend-mode:multiply">
<path d="M329.179 343.614C324.839 338.183 323.273 306.25 323.273 306.25L366.852 302.95V305.826L372.296 335.705C360.098 339.634 332.556 347.826 329.179 343.614Z" fill="#82B181"/>
</g>
</g>
<path d="M366.852 305.826L378.78 371.657C373.4 375.1 367.672 377.966 361.69 380.208C352.291 383.624 336.01 382.776 336.01 382.776L329.59 350.74L327.022 380.645C327.022 380.645 314.631 381.929 305.656 380.221C296.681 378.513 282.159 369.101 282.159 369.101L310.407 316.56L316.827 304.17L366.813 302.886L366.852 305.826Z" stroke="#2E353A" stroke-miterlimit="10"/>
<path d="M293.163 253.85L268.767 260.27L258.816 230.738L296.052 223.676L304.398 250.961L293.163 253.85Z" fill="#2E353A" stroke="#2E353A" stroke-linecap="round" stroke-linejoin="round"/>
<path d="M288.399 240.188L272.889 243.976" stroke="white" stroke-linecap="round" stroke-linejoin="round"/>
<path d="M289.902 243.976L274.391 247.763" stroke="white" stroke-linecap="round" stroke-linejoin="round"/>
<path d="M318.522 255.455C318.522 255.455 310.818 251.282 308.25 247.751C305.682 244.22 302.793 238.121 301.509 237.158C300.225 236.195 293.805 232.985 292.521 232.022C291.237 231.059 289.311 232.985 291.558 234.911C293.805 236.837 298.62 241.01 298.62 241.01C298.62 241.01 297.336 246.788 298.941 248.714C299.8 249.775 300.768 250.744 301.83 251.603L293.163 253.85C293.163 253.85 298.941 258.023 301.509 258.665C304.053 259.154 306.627 259.476 309.213 259.628L319.806 267.974L318.522 255.455Z" fill="white" stroke="#2E353A" stroke-linecap="round" stroke-linejoin="round"/>
<path d="M353.19 185.335C353.19 185.335 363.462 200.294 366.03 217.808C368.598 235.321 366.877 305.826 366.877 305.826C366.877 305.826 353.216 311.373 342.481 311.373C331.747 311.373 315.993 312.233 315.517 306.237C315.042 300.241 318.509 231.469 323.221 214.803C326.485 203.929 331.238 193.558 337.345 183.987C337.345 183.987 348.054 176.784 353.19 185.335Z" fill="#2E353A" stroke="#2E353A" stroke-linecap="round" stroke-linejoin="round"/>
<path d="M329.757 198.317L343.56 286.271L331.362 290.765L325.905 206.342L329.757 198.317Z" fill="white" stroke="#2E353A" stroke-linecap="round" stroke-linejoin="round"/>
<path d="M360.316 151.258C360.316 151.258 358.608 159.373 355.18 163.649C351.752 167.924 345.358 170.069 345.358 170.069L347.194 179.789L335.227 187.056L330.836 166.217L329.552 141.435C329.552 141.435 359.52 146.559 360.316 151.258Z" fill="white" stroke="#2E353A" stroke-linecap="round" stroke-linejoin="round"/>
<path d="M360.316 151.258C360.316 151.258 358.608 159.373 355.18 163.649C351.752 167.924 345.358 170.069 345.358 170.069C345.358 170.069 335.086 167.077 334.251 160.246C333.635 155.315 334.559 146.854 335.137 142.501C343.855 144.222 359.7 147.855 360.316 151.258Z" fill="#2E353A" stroke="#2E353A" stroke-linecap="round" stroke-linejoin="round"/>
<path d="M342.828 153.377C342.828 153.377 347.104 148.241 349.659 150.385C352.214 152.529 351.38 158.513 348.375 161.504C345.37 164.496 341.531 161.928 341.531 161.928C341.531 161.928 339.824 167.475 336.832 170.043C333.84 172.611 323.594 174.319 320.14 171.751C316.686 169.183 318.008 159.784 318.008 159.784C318.008 159.784 312.025 156.792 312.449 154.648C312.872 152.504 317.161 150.796 317.161 149.101C317.197 147.807 317.339 146.519 317.585 145.249V141.821L337.23 146.096C337.23 146.096 339.811 155.945 342.828 153.377Z" fill="white"/>
<mask id="mask3_7_6009" style="mask-type:luminance" maskUnits="userSpaceOnUse" x="312" y="141" width="40" height="33">
<path d="M342.828 153.377C342.828 153.377 347.104 148.241 349.659 150.385C352.214 152.529 351.38 158.513 348.375 161.504C345.37 164.496 341.531 161.928 341.531 161.928C341.531 161.928 339.824 167.475 336.832 170.043C333.84 172.611 323.594 174.319 320.14 171.751C316.686 169.183 318.008 159.784 318.008 159.784C318.008 159.784 312.025 156.792 312.449 154.648C312.872 152.504 317.161 150.796 317.161 149.101C317.197 147.807 317.339 146.519 317.585 145.249V141.821L337.23 146.096C337.23 146.096 339.811 155.945 342.828 153.377Z" fill="white"/>
</mask>
<g mask="url(#mask3_7_6009)">
<g style="mix-blend-mode:multiply" opacity="0.5">
<g style="mix-blend-mode:multiply">
<path d="M337.243 146.135C337.794 148.198 338.596 150.186 339.631 152.054C331.927 151.707 323.696 151.22 316.326 150.578C316.78 150.216 317.082 149.699 317.174 149.127C317.21 147.833 317.351 146.545 317.597 145.275V141.821L337.243 146.135Z" fill="#82B181"/>
</g>
</g>
</g>
<path d="M342.828 153.377C342.828 153.377 347.104 148.241 349.659 150.385C352.214 152.529 351.38 158.513 348.375 161.504C345.37 164.496 341.531 161.928 341.531 161.928C341.531 161.928 339.824 167.475 336.832 170.043C333.84 172.611 323.594 174.319 320.14 171.751C316.686 169.183 318.008 159.784 318.008 159.784C318.008 159.784 312.025 156.792 312.449 154.648C312.872 152.504 317.161 150.796 317.161 149.101C317.197 147.807 317.339 146.519 317.585 145.249V141.821L337.23 146.096C337.23 146.096 339.811 155.945 342.828 153.377Z" stroke="#2E353A" stroke-linecap="round" stroke-linejoin="round"/>
<path d="M360.316 151.258L317.597 141.821C317.597 141.821 323.581 120.879 330.835 119.171C338.09 117.463 352.201 116.603 359.892 124.307C367.584 132.011 360.316 151.258 360.316 151.258Z" fill="white" stroke="#2E353A" stroke-linecap="round" stroke-linejoin="round"/>
<path d="M331.696 145.275C326.065 146.525 320.355 147.383 314.606 147.843C306.902 148.266 289.401 141.423 293.664 140.999C297.927 140.575 317.597 141.859 317.597 141.859L331.696 145.275Z" fill="#2E353A" stroke="#2E353A" stroke-linecap="round" stroke-linejoin="round"/>
<path d="M351.469 176.36L355.321 184.912L336.087 196.866L332.248 184.912L351.469 176.36Z" fill="white" stroke="#2E353A" stroke-linecap="round" stroke-linejoin="round"/>
<path d="M391.068 265.727L322.695 283.382L329.795 333.381C329.912 334.198 330.199 334.982 330.64 335.68C331.08 336.378 331.663 336.976 332.351 337.433C333.038 337.89 333.814 338.197 334.629 338.332C335.443 338.468 336.277 338.43 337.076 338.221L399.234 322.069C400.401 321.768 401.405 321.024 402.033 319.996C402.66 318.968 402.863 317.735 402.598 316.56L391.068 265.727Z" fill="white" stroke="#2E353A" stroke-linecap="round" stroke-linejoin="round"/>
<path d="M391.068 265.727C391.068 265.727 374.928 304.889 365.041 310.025C355.155 315.161 322.669 283.42 322.669 283.42" stroke="#2E353A" stroke-linecap="round" stroke-linejoin="round"/>
<path d="M377.496 248.572C377.496 248.572 381.772 257.971 380.488 261.412C379.204 264.854 326.226 284.062 326.226 284.062C326.226 284.062 325.802 291.317 324.518 293.05C323.419 294.931 322.556 296.941 321.95 299.034C321.95 299.034 324.518 305.017 323.234 306.301C321.95 307.585 318.098 300.318 318.098 298.186C318.098 296.055 317.674 284.512 318.946 281.494C320.217 278.477 356.554 256.289 356.554 256.289L377.496 248.572Z" fill="white" stroke="#2E353A" stroke-linecap="round" stroke-linejoin="round"/>
<path d="M354.037 197.302L378.819 249.844L356.605 256.264L338.655 214.392" fill="#2E353A"/>
<path d="M354.037 197.302L378.819 249.844L356.605 256.264L338.655 214.392" stroke="#2E353A" stroke-linecap="round" stroke-linejoin="round"/>
<path d="M356.605 256.264L340.247 219.58" stroke="white" stroke-linecap="round" stroke-linejoin="round"/>
<path d="M345.858 233.049L337.628 224.818" stroke="white" stroke-linecap="round" stroke-linejoin="round"/>
<path d="M370.254 370.283C359.997 375.6 348.472 377.986 336.947 377.178" stroke="#2E353A" stroke-linecap="round" stroke-linejoin="round"/>
<path d="M375.827 366.919C375.827 366.919 374.838 367.663 373.002 368.768" stroke="#2E353A" stroke-linecap="round" stroke-linejoin="round"/>
<path d="M292.547 367.265C290.916 366.38 289.334 365.407 287.809 364.351" stroke="#2E353A" stroke-linecap="round" stroke-linejoin="round"/>
<path d="M325.417 375.509C315.393 375.375 305.498 373.227 296.322 369.191" stroke="#2E353A" stroke-linecap="round" stroke-linejoin="round"/>
<path d="M329.68 350.689L320.461 334.729" stroke="#2E353A" stroke-linecap="round" stroke-linejoin="round"/>
<path d="M329.179 349.854L313.81 332.43" stroke="#2E353A" stroke-linecap="round" stroke-linejoin="round"/>
<path d="M368.38 342.934L369.664 352.409C366.51 354.616 363.049 356.347 359.392 357.545C353.241 359.6 340.132 359.343 340.132 359.343L338.334 350.355C338.334 350.355 361.138 347.787 365.748 343.935" stroke="#2E353A" stroke-linecap="round" stroke-linejoin="round"/>
<path d="M369.908 355.992C369.908 355.992 373.503 364.71 371.192 366.765C368.88 368.819 352.497 374.957 348.08 374.469C343.663 373.981 341.172 363.195 341.172 363.195" stroke="#2E353A" stroke-linecap="round" stroke-linejoin="round"/>
<path d="M239.543 456.683C238.092 451.675 243.241 454.192 245.411 455.81C248.223 457.903 262.257 459.662 262.257 459.662L263.965 455.81C266.538 458.071 269.483 459.87 272.67 461.126C268.934 468.547 265.942 474.377 264.632 474.595C260.896 475.263 255.195 470.486 252.422 468.547C248.891 466.069 240.789 461.036 239.543 456.683Z" fill="#2E353A" stroke="#2E353A" stroke-linecap="round" stroke-linejoin="round"/>
<path d="M250.213 463.694C255.991 466.698 262.732 470.345 266.623 472.386C265.775 473.67 265.095 474.505 264.632 474.582C260.896 475.25 255.195 470.473 252.422 468.534C248.891 466.069 240.789 461.036 239.582 456.683C238.965 454.577 239.582 453.807 240.545 453.743C242.676 457.312 245.989 461.537 250.213 463.694Z" fill="white" stroke="#2E353A" stroke-linecap="round" stroke-linejoin="round"/>
<path d="M382.324 474.903C382.94 474.441 389.912 469.549 389.694 468.945C389.694 468.945 388.294 465.183 386.15 459.611C389.827 459.151 393.422 458.183 396.833 456.734C400.249 467.109 403.253 475.917 402.406 477.201C400.698 479.949 385.56 483.737 379.717 483.737C376.649 483.737 371.564 484.918 369.535 481.927C369.42 481.76 381.541 475.481 382.324 474.903Z" fill="white" stroke="#2E353A" stroke-linecap="round" stroke-linejoin="round"/>
<path d="M369.535 481.927C369.42 481.76 381.541 475.507 382.375 474.903C383.21 474.3 389.964 469.549 389.745 468.945L388.384 465.312C391.923 464.67 395.389 463.681 398.733 462.358C401.301 470.139 403.112 476.149 402.457 477.201C400.749 479.949 385.611 483.737 379.769 483.737C376.649 483.737 371.564 484.918 369.535 481.927Z" fill="#2E353A" stroke="#2E353A" stroke-linecap="round" stroke-linejoin="round"/>
<path d="M381.554 480.899C389.424 480.424 398.168 477.189 402.444 475.417C402.616 475.999 402.616 476.619 402.444 477.201C400.736 479.949 385.598 483.737 379.756 483.737C376.687 483.737 371.603 484.918 369.574 481.927C370.147 481.522 370.752 481.165 371.384 480.861C374.769 481.109 378.167 481.122 381.554 480.899Z" fill="white" stroke="#2E353A" stroke-linecap="round" stroke-linejoin="round"/>
<path d="M333.917 145.313L340.774 129.019" stroke="black" stroke-linecap="round" stroke-linejoin="round"/>
<path d="M341.634 126.027C341.634 126.027 343.778 121.302 342.058 119.158" stroke="black" stroke-linecap="round" stroke-linejoin="round"/>
</svg>
