<svg width="98" height="90" viewBox="0 0 98 90" fill="none" xmlns="http://www.w3.org/2000/svg">
<path d="M96.9996 41.0859C102.14 63.201 81.0761 82.6863 56.2224 88.4629C31.3686 94.2395 6.64264 75.0607 1.50255 52.9456C-3.63754 30.8305 26.5464 13.1016 51.4001 7.32494C76.2539 1.54832 91.8595 18.9709 96.9996 41.0859Z" fill="#F4FAF2"/>
<path d="M68.5 28.37C71.4467 29.3167 73.5 32.13 73.5 35.36V49.6467C73.5 53.4333 70.6767 56.6467 66.9 56.9567C65.7667 57.0467 64.6333 57.13 63.5 57.1967V67.5L53.5 57.5C48.9867 57.5 44.52 57.3167 40.1 56.9567C39.1378 56.8789 38.2018 56.6043 37.35 56.15M68.5 28.37C67.9849 28.2042 67.4526 28.098 66.9133 28.0533C57.9865 27.3123 49.0135 27.3123 40.0867 28.0533C36.3167 28.3667 33.5 31.5767 33.5 35.36V49.6467C33.5 52.4367 35.0333 54.9133 37.35 56.15M68.5 28.37V22.1233C68.5 16.72 64.66 12.0367 59.3 11.34C52.4027 10.446 45.455 9.99838 38.5 10C31.45 10 24.5067 10.4567 17.7 11.34C12.34 12.0367 8.5 16.72 8.5 22.1233V42.8767C8.5 48.28 12.34 52.9633 17.7 53.66C19.6233 53.91 21.5567 54.1267 23.5 54.3067V70L37.35 56.15" stroke="#82B181" stroke-width="4" stroke-linecap="round" stroke-linejoin="round"/>
</svg>
