<svg width="98" height="90" viewBox="0 0 98 90" fill="none" xmlns="http://www.w3.org/2000/svg">
<path d="M96.9996 41.0859C102.14 63.201 81.0761 82.6863 56.2224 88.4629C31.3686 94.2395 6.64264 75.0607 1.50255 52.9456C-3.63754 30.8305 26.5464 13.1016 51.4001 7.32494C76.2539 1.54832 91.8595 18.9709 96.9996 41.0859Z" fill="#F4FAF2"/>
<path d="M41 20V40H56M71 40C71 43.9397 70.224 47.8407 68.7164 51.4805C67.2087 55.1203 64.999 58.4274 62.2132 61.2132C59.4274 63.999 56.1203 66.2087 52.4805 67.7164C48.8407 69.224 44.9397 70 41 70C37.0603 70 33.1593 69.224 29.5195 67.7164C25.8797 66.2087 22.5726 63.999 19.7868 61.2132C17.001 58.4274 14.7913 55.1203 13.2836 51.4805C11.776 47.8407 11 43.9397 11 40C11 32.0435 14.1607 24.4129 19.7868 18.7868C25.4129 13.1607 33.0435 10 41 10C48.9565 10 56.5871 13.1607 62.2132 18.7868C67.8393 24.4129 71 32.0435 71 40Z" stroke="#82B181" stroke-width="4" stroke-linecap="round" stroke-linejoin="round"/>
</svg>
