<svg width="98" height="90" viewBox="0 0 98 90" fill="none" xmlns="http://www.w3.org/2000/svg">
<path d="M96.9996 41.0859C102.14 63.201 81.0761 82.6863 56.2224 88.4629C31.3686 94.2395 6.64264 75.0607 1.50255 52.9456C-3.63754 30.8305 26.5464 13.1016 51.4001 7.32494C76.2539 1.54832 91.8595 18.9709 96.9996 41.0859Z" fill="#F4FAF2"/>
<path d="M31 40H43.5M31 50H43.5M31 60H43.5M53.5 62.5H61C62.9891 62.5 64.8968 61.7098 66.3033 60.3033C67.7098 58.8968 68.5 56.9891 68.5 55V20.36C68.5 16.5767 65.6833 13.3667 61.9133 13.0533C60.6666 12.9499 59.4188 12.861 58.17 12.7867M58.17 12.7867C58.3912 13.5036 58.5002 14.2497 58.5 15C58.5 15.663 58.2366 16.2989 57.7678 16.7678C57.2989 17.2366 56.663 17.5 56 17.5H41C39.62 17.5 38.5 16.38 38.5 15C38.5 14.23 38.6167 13.4867 38.8333 12.7867M58.17 12.7867C57.2267 9.72667 54.3733 7.5 51 7.5H46C44.3975 7.50038 42.8372 8.01382 41.5475 8.96513C40.2579 9.91645 39.3068 11.2557 38.8333 12.7867M38.8333 12.7867C37.58 12.8633 36.3333 12.9533 35.0867 13.0533C31.3167 13.3667 28.5 16.5767 28.5 20.36V27.5M28.5 27.5H17.25C15.18 27.5 13.5 29.18 13.5 31.25V68.75C13.5 70.82 15.18 72.5 17.25 72.5H49.75C51.82 72.5 53.5 70.82 53.5 68.75V31.25C53.5 29.18 51.82 27.5 49.75 27.5H28.5ZM23.5 40H23.5267V40.0267H23.5V40ZM23.5 50H23.5267V50.0267H23.5V50ZM23.5 60H23.5267V60.0267H23.5V60Z" stroke="#82B181" stroke-width="4" stroke-linecap="round" stroke-linejoin="round"/>
</svg>
